
<svg width="70" height="70" viewBox="0 0 70 70" fill="none" xmlns="http://www.w3.org/2000/svg">
<circle cx="35" cy="35" r="35" fill="#22D855"/>
<path d="M46.6316 43.385C46.6316 43.805 46.5383 44.2367 46.3399 44.6567C46.1416 45.0767 45.8849 45.4733 45.5466 45.8467C44.9749 46.4767 44.3449 46.9317 43.6333 47.2233C42.9333 47.515 42.1749 47.6667 41.3583 47.6667C40.1683 47.6667 38.8966 47.3867 37.5549 46.815C36.2133 46.2433 34.8716 45.4733 33.5416 44.505C32.1999 43.525 30.9283 42.44 29.7149 41.2383C28.5133 40.025 27.4283 38.7533 26.4599 37.4233C25.5033 36.0933 24.7333 34.7633 24.1733 33.445C23.6133 32.115 23.3333 30.8433 23.3333 29.63C23.3333 28.8367 23.4733 28.0783 23.7533 27.3783C24.0333 26.6667 24.4766 26.0133 25.0949 25.43C25.8416 24.695 26.6583 24.3333 27.5216 24.3333C27.8483 24.3333 28.1749 24.4033 28.4666 24.5433C28.7699 24.6833 29.0383 24.8933 29.2483 25.1967L31.9549 29.0117C32.1649 29.3033 32.3166 29.5717 32.4216 29.8283C32.5266 30.0733 32.5849 30.3183 32.5849 30.54C32.5849 30.82 32.5033 31.1 32.3399 31.3683C32.1883 31.6367 31.9666 31.9167 31.6866 32.1967L30.7999 33.1183C30.6716 33.2467 30.6133 33.3983 30.6133 33.585C30.6133 33.6783 30.6249 33.76 30.6483 33.8533C30.6833 33.9467 30.7183 34.0167 30.7416 34.0867C30.9516 34.4717 31.3133 34.9733 31.8266 35.58C32.3516 36.1867 32.9116 36.805 33.5183 37.4233C34.1483 38.0417 34.7549 38.6133 35.3733 39.1383C35.9799 39.6517 36.4816 40.0017 36.8783 40.2117C36.9366 40.235 37.0066 40.27 37.0883 40.305C37.1816 40.34 37.2749 40.3517 37.3799 40.3517C37.5783 40.3517 37.7299 40.2817 37.8583 40.1533L38.7449 39.2783C39.0366 38.9867 39.3166 38.765 39.5849 38.625C39.8533 38.4617 40.1216 38.38 40.4133 38.38C40.6349 38.38 40.8683 38.4267 41.1249 38.5317C41.3816 38.6367 41.6499 38.7883 41.9416 38.9867L45.8033 41.7283C46.1066 41.9383 46.3166 42.1833 46.4449 42.475C46.5616 42.7667 46.6316 43.0583 46.6316 43.385Z" stroke="white" stroke-width="1.5" stroke-miterlimit="10"/>
<path d="M44.3334 26.6667H38.7334M44.3334 26.6667V32.2667V26.6667Z" stroke="white" stroke-width="1.5" stroke-linecap="round" stroke-linejoin="round"/>
<path d="M26 61C25.9253 61 25.864 60.976 25.816 60.928C25.7733 60.88 25.752 60.824 25.752 60.76V55.64C25.752 55.576 25.776 55.52 25.824 55.472C25.872 55.424 25.928 55.4 25.992 55.4H28.904C28.9733 55.4 29.0293 55.424 29.072 55.472C29.12 55.5147 29.144 55.5707 29.144 55.64C29.144 55.704 29.12 55.76 29.072 55.808C29.0293 55.8507 28.9733 55.872 28.904 55.872H26.208L26.24 55.824V57.952L26.2 57.88H28.544C28.6133 57.88 28.6693 57.904 28.712 57.952C28.76 57.9947 28.784 58.048 28.784 58.112C28.784 58.1813 28.76 58.2373 28.712 58.28C28.6693 58.3227 28.6133 58.344 28.544 58.344H26.184L26.24 58.28V60.76C26.24 60.824 26.216 60.88 26.168 60.928C26.1253 60.976 26.0693 61 26 61ZM30.3329 61C30.2583 61 30.1996 60.976 30.1569 60.928C30.1143 60.88 30.0929 60.824 30.0929 60.76V57.176C30.0929 57.112 30.1143 57.056 30.1569 57.008C30.2049 56.96 30.2636 56.936 30.3329 56.936C30.4023 56.936 30.4583 56.96 30.5009 57.008C30.5489 57.056 30.5729 57.112 30.5729 57.176V58.376L30.4529 58.4C30.4689 58.2133 30.5143 58.0293 30.5889 57.848C30.6689 57.6613 30.7756 57.4907 30.9089 57.336C31.0423 57.1813 31.1996 57.056 31.3809 56.96C31.5676 56.864 31.7756 56.816 32.0049 56.816C32.1009 56.816 32.1943 56.8373 32.2849 56.88C32.3756 56.9173 32.4209 56.9813 32.4209 57.072C32.4209 57.152 32.3996 57.2133 32.3569 57.256C32.3143 57.2987 32.2636 57.32 32.2049 57.32C32.1569 57.32 32.1036 57.3067 32.0449 57.28C31.9916 57.2533 31.9196 57.24 31.8289 57.24C31.6796 57.24 31.5303 57.2853 31.3809 57.376C31.2316 57.4613 31.0956 57.5787 30.9729 57.728C30.8503 57.8773 30.7516 58.0453 30.6769 58.232C30.6076 58.4133 30.5729 58.5973 30.5729 58.784V60.76C30.5729 60.824 30.5489 60.88 30.5009 60.928C30.4529 60.976 30.3969 61 30.3329 61ZM36.7994 58.952C36.7994 59.3573 36.7114 59.7227 36.5354 60.048C36.3594 60.368 36.1194 60.6213 35.8154 60.808C35.5114 60.9893 35.1647 61.08 34.7754 61.08C34.3967 61.08 34.0527 60.9893 33.7434 60.808C33.4394 60.6213 33.1967 60.368 33.0154 60.048C32.8394 59.7227 32.7514 59.3573 32.7514 58.952C32.7514 58.5413 32.8394 58.176 33.0154 57.856C33.1967 57.536 33.4394 57.2827 33.7434 57.096C34.0527 56.9093 34.3967 56.816 34.7754 56.816C35.1647 56.816 35.5114 56.9093 35.8154 57.096C36.1194 57.2827 36.3594 57.536 36.5354 57.856C36.7114 58.176 36.7994 58.5413 36.7994 58.952ZM36.3194 58.952C36.3194 58.6267 36.2527 58.3387 36.1194 58.088C35.986 57.832 35.802 57.632 35.5674 57.488C35.338 57.3387 35.074 57.264 34.7754 57.264C34.4874 57.264 34.226 57.3387 33.9914 57.488C33.7567 57.632 33.57 57.832 33.4314 58.088C33.298 58.3387 33.2314 58.6267 33.2314 58.952C33.2314 59.2773 33.298 59.5653 33.4314 59.816C33.57 60.0667 33.7567 60.2667 33.9914 60.416C34.226 60.56 34.4874 60.632 34.7754 60.632C35.074 60.632 35.338 60.56 35.5674 60.416C35.802 60.2667 35.986 60.0667 36.1194 59.816C36.2527 59.5653 36.3194 59.2773 36.3194 58.952ZM39.6595 56.88C39.9902 56.88 40.2728 56.968 40.5075 57.144C40.7422 57.3147 40.9022 57.5707 40.9875 57.912L40.8755 57.944L40.9235 57.8C40.9928 57.64 41.1075 57.4907 41.2675 57.352C41.4328 57.208 41.6195 57.0933 41.8275 57.008C42.0355 56.9227 42.2462 56.88 42.4595 56.88C42.7955 56.88 43.0648 56.952 43.2675 57.096C43.4755 57.24 43.6248 57.4347 43.7155 57.68C43.8115 57.92 43.8595 58.192 43.8595 58.496V60.76C43.8595 60.824 43.8355 60.88 43.7875 60.928C43.7448 60.976 43.6888 61 43.6195 61C43.5502 61 43.4915 60.976 43.4435 60.928C43.4008 60.88 43.3795 60.824 43.3795 60.76V58.52C43.3795 58.3013 43.3448 58.1013 43.2755 57.92C43.2062 57.7387 43.0968 57.5947 42.9475 57.488C42.7982 57.3813 42.5982 57.328 42.3475 57.328C42.1288 57.328 41.9182 57.3813 41.7155 57.488C41.5182 57.5947 41.3555 57.7387 41.2275 57.92C41.1048 58.1013 41.0435 58.3013 41.0435 58.52V60.76C41.0435 60.824 41.0195 60.88 40.9715 60.928C40.9288 60.976 40.8728 61 40.8035 61C40.7342 61 40.6755 60.976 40.6275 60.928C40.5848 60.88 40.5635 60.824 40.5635 60.76V58.496C40.5635 58.2773 40.5315 58.08 40.4675 57.904C40.4035 57.728 40.2995 57.5893 40.1555 57.488C40.0115 57.3813 39.8168 57.328 39.5715 57.328C39.3528 57.328 39.1448 57.3813 38.9475 57.488C38.7555 57.5893 38.5982 57.728 38.4755 57.904C38.3582 58.08 38.2995 58.2773 38.2995 58.496V60.76C38.2995 60.824 38.2755 60.88 38.2275 60.928C38.1795 60.976 38.1235 61 38.0595 61C37.9848 61 37.9262 60.976 37.8835 60.928C37.8408 60.88 37.8195 60.824 37.8195 60.76V57.176C37.8195 57.112 37.8408 57.056 37.8835 57.008C37.9315 56.96 37.9902 56.936 38.0595 56.936C38.1288 56.936 38.1848 56.96 38.2275 57.008C38.2755 57.056 38.2995 57.112 38.2995 57.176V57.92L38.0835 58.216C38.0995 58.056 38.1502 57.896 38.2355 57.736C38.3262 57.576 38.4435 57.432 38.5875 57.304C38.7315 57.176 38.8942 57.0747 39.0755 57C39.2622 56.92 39.4568 56.88 39.6595 56.88Z" fill="white"/>
</svg>
