
<svg width="70" height="70" viewBox="0 0 70 70" fill="none" xmlns="http://www.w3.org/2000/svg">
<circle cx="35" cy="35" r="35" fill="#E38025"/>
<path d="M46.6316 43.385C46.6316 43.805 46.5383 44.2367 46.3399 44.6567C46.1416 45.0767 45.8849 45.4733 45.5466 45.8467C44.9749 46.4767 44.3449 46.9317 43.6333 47.2233C42.9333 47.515 42.1749 47.6667 41.3583 47.6667C40.1683 47.6667 38.8966 47.3867 37.5549 46.815C36.2133 46.2433 34.8716 45.4733 33.5416 44.505C32.1999 43.525 30.9283 42.44 29.7149 41.2383C28.5133 40.025 27.4283 38.7533 26.4599 37.4233C25.5033 36.0933 24.7333 34.7633 24.1733 33.445C23.6133 32.115 23.3333 30.8433 23.3333 29.63C23.3333 28.8367 23.4733 28.0783 23.7533 27.3783C24.0333 26.6667 24.4766 26.0133 25.0949 25.43C25.8416 24.695 26.6583 24.3333 27.5216 24.3333C27.8483 24.3333 28.1749 24.4033 28.4666 24.5433C28.7699 24.6833 29.0383 24.8933 29.2483 25.1967L31.9549 29.0117C32.1649 29.3033 32.3166 29.5717 32.4216 29.8283C32.5266 30.0733 32.5849 30.3183 32.5849 30.54C32.5849 30.82 32.5033 31.1 32.3399 31.3683C32.1883 31.6367 31.9666 31.9167 31.6866 32.1967L30.7999 33.1183C30.6716 33.2467 30.6133 33.3983 30.6133 33.585C30.6133 33.6783 30.6249 33.76 30.6483 33.8533C30.6833 33.9467 30.7183 34.0167 30.7416 34.0867C30.9516 34.4717 31.3133 34.9733 31.8266 35.58C32.3516 36.1867 32.9116 36.805 33.5183 37.4233C34.1483 38.0417 34.7549 38.6133 35.3733 39.1383C35.9799 39.6517 36.4816 40.0017 36.8783 40.2117C36.9366 40.235 37.0066 40.27 37.0883 40.305C37.1816 40.34 37.2749 40.3517 37.3799 40.3517C37.5783 40.3517 37.7299 40.2817 37.8583 40.1533L38.7449 39.2783C39.0366 38.9867 39.3166 38.765 39.5849 38.625C39.8533 38.4617 40.1216 38.38 40.4133 38.38C40.6349 38.38 40.8683 38.4267 41.1249 38.5317C41.3816 38.6367 41.6499 38.7883 41.9416 38.9867L45.8033 41.7283C46.1066 41.9383 46.3166 42.1833 46.4449 42.475C46.5616 42.7667 46.6316 43.0583 46.6316 43.385Z" stroke="white" stroke-width="1.5" stroke-miterlimit="10"/>
<path d="M39.8999 31.1H45.4999M39.8999 31.1V25.5V31.1Z" stroke="white" stroke-width="1.5" stroke-linecap="round" stroke-linejoin="round"/>
<path d="M33.416 61C33.3413 61 33.28 60.976 33.232 60.928C33.1893 60.88 33.168 60.824 33.168 60.76V55.664H33.664V60.76C33.664 60.824 33.64 60.88 33.592 60.928C33.544 60.976 33.4853 61 33.416 61ZM31.512 55.856C31.448 55.856 31.392 55.8347 31.344 55.792C31.296 55.7493 31.272 55.6933 31.272 55.624C31.272 55.56 31.296 55.5067 31.344 55.464C31.392 55.4213 31.448 55.4 31.512 55.4H35.32C35.384 55.4 35.44 55.4213 35.488 55.464C35.536 55.5067 35.56 55.5627 35.56 55.632C35.56 55.7013 35.536 55.7573 35.488 55.8C35.44 55.8373 35.384 55.856 35.32 55.856H31.512ZM39.3072 58.952C39.3072 59.3573 39.2192 59.7227 39.0432 60.048C38.8672 60.368 38.6272 60.6213 38.3232 60.808C38.0192 60.9893 37.6725 61.08 37.2832 61.08C36.9045 61.08 36.5605 60.9893 36.2512 60.808C35.9472 60.6213 35.7045 60.368 35.5232 60.048C35.3472 59.7227 35.2592 59.3573 35.2592 58.952C35.2592 58.5413 35.3472 58.176 35.5232 57.856C35.7045 57.536 35.9472 57.2827 36.2512 57.096C36.5605 56.9093 36.9045 56.816 37.2832 56.816C37.6725 56.816 38.0192 56.9093 38.3232 57.096C38.6272 57.2827 38.8672 57.536 39.0432 57.856C39.2192 58.176 39.3072 58.5413 39.3072 58.952ZM38.8272 58.952C38.8272 58.6267 38.7605 58.3387 38.6272 58.088C38.4939 57.832 38.3099 57.632 38.0752 57.488C37.8459 57.3387 37.5819 57.264 37.2832 57.264C36.9952 57.264 36.7339 57.3387 36.4992 57.488C36.2645 57.632 36.0779 57.832 35.9392 58.088C35.8059 58.3387 35.7392 58.6267 35.7392 58.952C35.7392 59.2773 35.8059 59.5653 35.9392 59.816C36.0779 60.0667 36.2645 60.2667 36.4992 60.416C36.7339 60.56 36.9952 60.632 37.2832 60.632C37.5819 60.632 37.8459 60.56 38.0752 60.416C38.3099 60.2667 38.4939 60.0667 38.6272 59.816C38.7605 59.5653 38.8272 59.2773 38.8272 58.952Z" fill="white"/>
</svg>
