
<svg width="201" height="200" viewBox="0 0 201 200" fill="none" xmlns="http://www.w3.org/2000/svg">
<path d="M152.918 87.1195V79.4144C152.918 77.3173 152.085 75.3046 150.6 73.8195C149.115 72.3371 147.102 71.5009 145.005 71.5009C135.559 71.5009 119.998 71.5009 111.668 71.5009C108.273 71.5009 105.258 73.6665 104.171 76.8821L103.419 79.206H55.3183C53.2186 79.206 51.2059 80.0395 49.7208 81.5247C48.2383 83.0071 47.4048 85.0198 47.4048 87.1195H152.918Z" fill="#00A54F"/>
<path d="M47.0328 145.68C47.0328 145.68 49.0877 158.827 50.5332 168.088C51.438 173.865 56.413 178.125 62.2637 178.125H139.162C145.013 178.125 149.988 173.865 150.892 168.088C153.267 152.889 158.099 121.955 160.784 104.78C161.317 101.353 160.328 97.8634 158.073 95.2282C155.817 92.593 152.523 91.0762 149.054 91.0762C125.786 91.0762 75.6402 91.0762 52.3718 91.0762C48.903 91.0762 45.6084 92.593 43.353 95.2282C41.0977 97.8634 40.1085 101.353 40.6413 104.78C42.8017 118.605 46.0304 139.264 46.0304 139.264C46.1438 139.982 46.8191 140.475 47.5366 140.364C48.2568 140.251 48.75 139.576 48.6366 138.855L43.2475 104.371C42.8334 101.707 43.6036 98.9924 45.3551 96.9428C47.1093 94.8932 49.6733 93.7141 52.3718 93.7141H149.054C151.752 93.7141 154.316 94.8932 156.071 96.9428C157.822 98.9924 158.592 101.707 158.178 104.371C155.493 121.546 150.66 152.48 148.286 167.679C147.582 172.174 143.712 175.487 139.162 175.487C121.032 175.487 80.3936 175.487 62.2637 175.487C57.7134 175.487 53.8437 172.174 53.1394 167.679C51.6939 158.42 49.639 145.273 49.639 145.273C49.5282 144.553 48.8529 144.06 48.1328 144.173C47.4126 144.287 46.922 144.962 47.0328 145.68V145.68Z" fill="#010101"/>
<path d="M61.7124 157.877V160.575C61.7124 164.218 64.6668 167.17 68.307 167.17H89.4097C93.0526 167.17 96.0043 164.218 96.0043 160.575V155.3C96.0043 151.66 93.0526 148.705 89.4097 148.705H68.307C66.4922 148.705 64.8462 149.441 63.6512 150.631C63.1368 151.145 63.1368 151.979 63.6486 152.496C64.163 153.01 64.9992 153.013 65.5135 152.498C66.231 151.783 67.2176 151.343 68.307 151.343H89.4097C91.5965 151.343 93.3665 153.116 93.3665 155.3V160.575C93.3665 162.762 91.5965 164.532 89.4124 164.532C89.4097 164.532 68.307 164.532 68.307 164.532C66.1229 164.532 64.3529 162.762 64.3502 160.575V157.877C64.3502 157.152 63.7594 156.558 63.0313 156.558C62.3059 156.558 61.7124 157.152 61.7124 157.877V157.877Z" fill="#010101"/>
<path d="M78.4997 73.3368C79.3412 71.8728 80.4755 70.5433 81.8735 69.3879C82.4354 68.9237 82.5119 68.0901 82.0503 67.5309C81.586 66.969 80.7524 66.8899 80.1932 67.3542C78.5419 68.7179 77.2098 70.2927 76.2127 72.0205C75.8487 72.6509 76.0676 73.4581 76.6981 73.8221C77.3285 74.1835 78.1357 73.9672 78.4997 73.3368V73.3368Z" fill="#010101"/>
<path d="M86.9486 66.4362C89.0642 65.5921 91.4752 65.0144 94.1526 64.7454C94.8753 64.6742 95.4055 64.0279 95.3317 63.3025C95.2605 62.5797 94.6142 62.0495 93.8888 62.1207C90.9476 62.4162 88.2992 63.0598 85.9726 63.9831C85.2973 64.2521 84.965 65.0197 85.234 65.6976C85.5031 66.3729 86.2707 66.7053 86.9486 66.4362V66.4362Z" fill="#010101"/>
<path d="M100.613 64.6952C103.733 64.93 106.587 64.9801 109.194 64.8693C109.922 64.8403 110.486 64.2257 110.457 63.4977C110.425 62.7696 109.811 62.2051 109.083 62.2341C106.569 62.3397 103.818 62.2895 100.813 62.0627C100.085 62.0099 99.452 62.5533 99.3966 63.2787C99.3438 64.0068 99.8872 64.6399 100.613 64.6952V64.6952Z" fill="#010101"/>
<path d="M116.313 64.0885C119.391 63.5108 121.997 62.6561 124.189 61.6036C124.846 61.2871 125.123 60.4984 124.809 59.8442C124.493 59.1874 123.704 58.9104 123.047 59.2243C121.04 60.1898 118.647 60.9679 115.827 61.4981C115.11 61.6327 114.64 62.3211 114.775 63.036C114.909 63.7535 115.598 64.223 116.313 64.0885V64.0885Z" fill="#010101"/>
<path d="M129.565 57.9397C131.929 55.6579 133.316 53.0306 133.942 50.3585C134.108 49.6489 133.667 48.9393 132.958 48.7732C132.251 48.607 131.538 49.0475 131.375 49.7571C130.855 51.9755 129.695 54.1491 127.735 56.0404C127.21 56.5469 127.197 57.3831 127.7 57.9054C128.207 58.4303 129.043 58.4461 129.565 57.9397Z" fill="#010101"/>
<path d="M133.314 41.2764C132.269 38.4962 130.491 36.1353 128.331 34.6423C127.732 34.2308 126.909 34.3811 126.495 34.9799C126.084 35.5787 126.234 36.4017 126.833 36.8132C128.584 38.0214 129.998 39.9523 130.845 42.205C131.101 42.8855 131.863 43.2311 132.544 42.9752C133.224 42.7193 133.57 41.957 133.314 41.2764Z" fill="#010101"/>
<path d="M98.9482 34.637C100.399 27.842 106.171 24.5367 110.333 24.513C111.697 24.5051 112.881 24.8269 113.499 25.6499C113.86 26.1379 113.971 26.7921 113.834 27.594C113.71 28.3115 114.19 28.9947 114.907 29.1187C115.625 29.2426 116.308 28.7599 116.432 28.0424C116.717 26.3938 116.358 25.0722 115.611 24.0725C114.562 22.6665 112.644 21.862 110.317 21.8752C105.253 21.9042 98.1331 25.8161 96.3684 34.0884C96.2154 34.8006 96.6718 35.4996 97.384 35.6526C98.0962 35.8056 98.7952 35.3492 98.9482 34.637V34.637Z" fill="#010101"/>
<path d="M96.3817 34.6423C98.1648 42.8723 105.261 46.7658 110.312 46.7975C112.815 46.8106 114.844 45.8795 115.838 44.2678C116.435 43.297 116.696 42.0599 116.419 40.5484C116.073 38.6887 114.849 36.3068 112.288 33.4764C111.8 32.9382 110.966 32.896 110.426 33.384C109.887 33.872 109.845 34.7082 110.333 35.249C112.119 37.2195 113.177 38.8998 113.638 40.311C113.992 41.3872 113.981 42.2498 113.591 42.8855C113.24 43.4553 112.604 43.8035 111.845 43.9934C110.887 44.2308 109.737 44.2124 108.529 43.9565C104.657 43.1388 100.22 39.9021 98.9588 34.0831C98.8058 33.3708 98.1015 32.9198 97.3893 33.0728C96.6797 33.2284 96.226 33.9301 96.3817 34.6423V34.6423Z" fill="#010101"/>
<path d="M97.3126 37.0005H114.973C116.429 37.0005 117.611 35.8188 117.611 34.3627C117.611 32.9066 116.429 31.7249 114.973 31.7249H97.3126C95.8566 31.7249 94.6748 32.9066 94.6748 34.3627C94.6748 35.8188 95.8566 37.0005 97.3126 37.0005Z" fill="#00A54F"/>
</svg>
