
<svg width="200" height="277" viewBox="0 0 200 277" fill="none" xmlns="http://www.w3.org/2000/svg">
<path d="M77.1093 0H156.897C162.684 0.0141188 168.23 2.31934 172.322 6.41152C176.415 10.5037 178.72 16.0498 178.734 21.837V64.9893C178.734 65.8198 178.495 66.6327 178.045 67.3309C177.595 68.0291 176.954 68.5831 176.198 68.9267L171.661 71.5467C170.709 72.1063 169.918 72.9023 169.364 73.8577C168.81 74.8131 168.512 75.8955 168.499 76.9998C168.486 78.1042 168.759 79.1931 169.291 80.161C169.823 81.1289 170.596 81.943 171.535 82.5243C172.462 83.0889 173.515 83.4125 174.599 83.4658L174.609 83.4528C175.72 83.5032 176.768 83.98 177.537 84.784C178.305 85.5879 178.734 86.6572 178.734 87.7693V99.2023C178.734 100.134 178.433 101.04 177.876 101.787C177.319 102.533 176.535 103.08 175.642 103.345C175.291 103.503 174.96 103.725 174.622 103.88L164.851 109.52C163.391 110.376 162.33 111.775 161.898 113.411C161.467 115.047 161.701 116.787 162.549 118.252C163.397 119.716 164.79 120.785 166.424 121.225C168.057 121.665 169.799 121.44 171.268 120.6L172.262 120.027L172.253 120.01C172.909 119.631 173.655 119.431 174.413 119.431C175.171 119.431 175.917 119.631 176.574 120.01C177.23 120.389 177.776 120.934 178.155 121.591C178.534 122.248 178.734 122.993 178.734 123.752V136.97C178.734 138.05 178.33 139.09 177.601 139.887C176.872 140.683 175.872 141.178 174.797 141.274L170.329 142.077L170.333 142.094C170.245 142.11 170.156 142.123 170.068 142.133C169.055 142.389 168.17 143.006 167.58 143.868C167.255 144.327 167.026 144.847 166.904 145.396C166.782 145.945 166.77 146.513 166.87 147.067C166.97 147.621 167.179 148.149 167.484 148.621C167.79 149.093 168.186 149.5 168.651 149.818C169.111 150.142 169.631 150.372 170.18 150.496C170.729 150.619 171.298 150.633 171.852 150.537L173.648 150.215L173.645 150.198C174.203 150.098 174.776 150.108 175.33 150.229C175.884 150.35 176.409 150.579 176.875 150.903C177.341 151.227 177.738 151.639 178.045 152.116C178.351 152.594 178.561 153.127 178.661 153.685C178.706 153.938 178.73 154.194 178.731 154.45V180.764C178.717 186.551 176.411 192.097 172.319 196.19C168.227 200.282 162.681 202.587 156.894 202.601H77.1061C71.3189 202.587 65.7727 200.282 61.6805 196.19C57.5884 192.097 55.2832 186.551 55.269 180.764V21.837C55.2832 16.0498 57.5884 10.5037 61.6805 6.41152C65.7727 2.31934 71.3189 0.0141188 77.1061 0H77.1093ZM156.897 8.64277H77.1093C73.614 8.65592 70.2656 10.0502 67.7941 12.5218C65.3225 14.9934 63.9282 18.3417 63.9151 21.837V180.764C63.9282 184.259 65.3225 187.608 67.7941 190.079C70.2656 192.551 73.614 193.945 77.1093 193.958H156.897C160.392 193.945 163.741 192.551 166.212 190.079C168.684 187.608 170.078 184.259 170.091 180.764V159.178C167.326 158.963 164.704 157.863 162.613 156.041C160.523 154.219 159.074 151.772 158.483 149.063C158.393 148.759 158.337 148.446 158.315 148.129C157.853 144.903 158.629 141.622 160.487 138.945C162.346 136.269 165.149 134.395 168.333 133.7C168.61 133.618 168.894 133.564 169.182 133.538L170.088 133.375V129.932C166.641 130.402 163.138 129.66 160.177 127.834C157.216 126.007 154.982 123.208 153.857 119.916C152.732 116.624 152.785 113.043 154.008 109.787C155.231 106.53 157.547 103.799 160.56 102.061L170.088 96.5595V91.3049C167.349 90.3853 164.934 88.6945 163.133 86.4357C161.332 84.1769 160.221 81.4461 159.934 78.5713C159.647 75.6965 160.196 72.8 161.515 70.2297C162.834 67.6595 164.868 65.5247 167.371 64.0819L170.088 62.5134V21.8338C170.075 18.3385 168.68 14.9901 166.209 12.5186C163.737 10.047 160.389 8.65268 156.894 8.63953L156.897 8.64277Z" fill="#022A32"/>
<path d="M172.627 23.4978L177.486 20.693C180.934 18.7029 185.031 18.164 188.876 19.1947C192.721 20.2254 195.999 22.7414 197.99 26.1892C199.98 29.6369 200.519 33.734 199.488 37.5792C198.457 41.4243 195.941 44.7025 192.493 46.6926V46.704C192.374 46.7737 192.252 46.8352 192.129 46.8919L182.376 52.5225L182.381 52.5306L182.376 52.5339L182.381 52.5436C182.276 52.6036 182.169 52.6603 182.06 52.7105C179.662 54.0157 176.952 54.6409 174.224 54.5188L174.215 54.5317C173.104 54.4815 172.055 54.0048 171.286 53.2008C170.518 52.3968 170.089 51.3274 170.089 50.2152V27.4352C170.089 26.6047 170.328 25.7918 170.778 25.0936C171.228 24.3953 171.869 23.8413 172.625 23.4978H172.627ZM181.773 28.1514L178.734 29.9062V44.6899L187.829 39.4385C188.006 39.3123 188.192 39.1996 188.386 39.1015C189.795 38.2044 190.798 36.7918 191.179 35.1654C191.561 33.5391 191.291 31.828 190.428 30.3979C189.564 28.9677 188.176 27.932 186.559 27.5119C184.942 27.0918 183.225 27.3207 181.775 28.1497L181.773 28.1514Z" fill="#022A32"/>
<path d="M160.564 102.06L170.312 96.4331C170.559 96.255 170.825 96.1046 171.106 95.9843C174.465 94.1908 178.38 93.7419 182.058 94.7285C185.736 95.7151 188.902 98.0634 190.912 101.297C191.111 101.564 191.277 101.853 191.41 102.158C193.241 105.592 193.668 109.603 192.6 113.346C191.532 117.089 189.053 120.271 185.685 122.222V122.233C185.565 122.303 185.444 122.365 185.321 122.421L175.555 128.06C173.851 129.046 171.969 129.685 170.017 129.942C168.065 130.198 166.081 130.067 164.18 129.556C160.572 128.59 156.361 125.644 154.831 122.141C152.992 118.705 152.562 114.687 153.632 110.94C154.702 107.192 157.189 104.007 160.565 102.06H160.564ZM164.851 109.52C163.442 110.356 162.402 111.695 161.941 113.267C161.48 114.839 161.633 116.528 162.369 117.991C162.425 118.076 162.481 118.162 162.531 118.251L162.521 118.256C163.379 119.716 164.777 120.781 166.413 121.22C168.049 121.658 169.792 121.436 171.266 120.6L181.017 114.971C181.194 114.845 181.38 114.732 181.574 114.634C182.92 113.773 183.898 112.445 184.321 110.905C184.744 109.365 184.581 107.723 183.864 106.296C183.744 106.119 183.638 105.934 183.545 105.742C182.67 104.422 181.342 103.469 179.812 103.062C178.282 102.654 176.656 102.822 175.241 103.532C172.253 105.554 168.089 107.652 164.849 109.522L164.851 109.52Z" fill="#022A32"/>
<path d="M169.181 133.537L178.044 131.941C179.712 131.64 181.423 131.671 183.079 132.032C184.735 132.393 186.303 133.077 187.695 134.044C189.086 135.012 190.274 136.244 191.189 137.67C192.104 139.097 192.729 140.69 193.029 142.358L193.045 142.355C193.072 142.507 193.091 142.662 193.102 142.816C193.577 146.126 192.748 149.491 190.791 152.202C188.833 154.913 185.9 156.757 182.608 157.347L173.373 159.01C171.705 159.31 169.994 159.279 168.338 158.918C166.682 158.558 165.113 157.874 163.722 156.906C162.33 155.939 161.143 154.707 160.227 153.28C159.312 151.854 158.687 150.261 158.388 148.593L158.372 148.596C158.344 148.443 158.325 148.288 158.315 148.133C157.84 144.824 158.668 141.461 160.624 138.751C162.58 136.041 165.512 134.196 168.802 133.605L168.798 133.589C168.925 133.566 169.053 133.55 169.179 133.538L169.181 133.537ZM183.838 147.083C183.52 147.547 183.114 147.945 182.643 148.252C182.171 148.559 181.643 148.77 181.09 148.873L171.854 150.536C170.78 150.714 169.679 150.484 168.766 149.892C167.852 149.3 167.194 148.387 166.919 147.334C166.898 147.15 166.866 146.969 166.822 146.789C166.719 145.755 166.988 144.717 167.582 143.863C168.176 143.01 169.055 142.396 170.061 142.133C170.283 142.107 170.503 142.065 170.718 142.006L179.564 140.413C183.459 139.715 186.223 143.651 183.838 147.083Z" fill="#DB5656"/>
<path d="M56.0515 61.752C56.3729 62.2174 56.7828 62.615 57.2579 62.922C57.7329 63.2291 58.2638 63.4395 58.8202 63.5414C59.3766 63.6433 59.9476 63.6345 60.5007 63.5157C61.0537 63.3969 61.5779 63.1703 62.0434 62.8489C62.5088 62.5275 62.9064 62.1176 63.2135 61.6425C63.5205 61.1674 63.731 60.6365 63.8328 60.0801C63.9347 59.5237 63.926 58.9527 63.8071 58.3997C63.6883 57.8466 63.4617 57.3224 63.1403 56.857C60.2497 52.6539 56.6558 49.9885 53.0879 48.8477C50.5083 48.023 47.9304 47.9663 45.5729 48.6679C43.0058 49.454 40.7818 51.0885 39.265 53.3036C37.3789 56.0209 36.2852 59.8124 36.4618 64.6069C36.632 69.2151 36.5785 76.769 35.1477 84.8642C33.4999 94.1875 31.2865 99.7257 25.8811 107.429C24.0875 109.778 6.98015 133.282 21.2892 157.783C22.0313 159.742 26.6848 172.573 24.5898 181.216C24.4567 181.766 24.4331 182.337 24.5205 182.895C24.608 183.454 24.8046 183.99 25.0992 184.473C25.3938 184.956 25.7806 185.376 26.2375 185.709C26.6945 186.043 27.2126 186.283 27.7623 186.416C28.3121 186.549 28.8826 186.572 29.4414 186.485C30.0002 186.398 30.5364 186.201 31.0192 185.906C31.502 185.612 31.9221 185.225 32.2554 184.768C32.5888 184.311 32.8288 183.793 32.9619 183.243C35.6646 172.087 30.1701 156.881 29.3308 154.664C29.2296 154.342 29.0909 154.032 28.9176 153.742L28.9047 153.747C17.1071 133.995 31.2363 114.633 32.6962 112.724C38.6428 105.604 42.0568 95.3897 43.6544 86.3483C45.2002 77.597 45.2553 69.3464 45.0706 64.3023C44.9701 61.5446 45.4627 59.5451 46.3296 58.2715C46.7978 57.6299 47.2304 57.1762 48.0374 56.9364C48.7357 56.729 49.5653 56.7662 50.4532 57.0498C52.3085 57.6428 54.295 59.2 56.0498 61.752H56.0515Z" fill="#022A32"/>
<path d="M1.39187 201.622C0.975244 202.006 0.638214 202.468 0.400033 202.981C0.161852 203.495 0.0271779 204.051 0.00370614 204.616C-0.0197657 205.182 0.068429 205.747 0.26324 206.278C0.45805 206.81 0.75567 207.298 1.1391 207.715C1.52254 208.131 1.98427 208.468 2.49796 208.707C3.01164 208.945 3.56721 209.08 4.13294 209.103C4.69867 209.126 5.26349 209.038 5.79514 208.843C6.32679 208.649 6.81486 208.351 7.23149 207.968L28.6683 188.195L85.3794 244.515L94.8955 253.965L79.7018 269.157C78.8922 269.968 78.4375 271.066 78.4378 272.212C78.4381 273.357 78.8933 274.456 79.7033 275.266C80.5133 276.076 81.6118 276.531 82.7573 276.531C83.9028 276.532 85.0016 276.077 85.812 275.267L104.047 257.034L104.075 257.008C104.474 256.606 104.791 256.128 105.006 255.603C105.222 255.078 105.332 254.516 105.33 253.949C105.328 253.381 105.214 252.82 104.995 252.296C104.776 251.773 104.456 251.298 104.054 250.898L104.045 250.908L91.4572 238.407L32.0418 179.401L31.9543 179.303C31.1773 178.46 30.0976 177.961 28.9526 177.915C27.8076 177.869 26.6912 178.279 25.8489 179.056L25.8554 179.063L1.39511 201.624L1.39187 201.622Z" fill="#022A32"/>
<path d="M150.08 198.936C150.167 198.377 150.142 197.807 150.008 197.258C149.874 196.709 149.633 196.192 149.3 195.736C148.966 195.28 148.545 194.894 148.062 194.6C147.579 194.307 147.043 194.111 146.485 194.025C145.926 193.938 145.356 193.963 144.807 194.097C144.258 194.231 143.74 194.472 143.284 194.805C142.828 195.139 142.443 195.56 142.149 196.043C141.855 196.526 141.66 197.062 141.573 197.62C141.562 197.701 137.78 226.041 84.8316 234.298C84.2731 234.384 83.737 234.58 83.254 234.873C82.771 235.167 82.3506 235.553 82.0167 236.009C81.6829 236.465 81.4421 236.982 81.3081 237.531C81.1742 238.08 81.1497 238.65 81.2361 239.209C81.3225 239.768 81.5181 240.304 81.8116 240.787C82.1052 241.27 82.491 241.69 82.9471 242.024C83.4031 242.358 83.9205 242.599 84.4696 242.732C85.0187 242.866 85.5888 242.891 86.1473 242.804C145.399 233.564 150.066 199.035 150.08 198.936Z" fill="#022A32"/>
<path d="M167.374 64.0835L177.486 58.2455C180.056 56.7636 183.008 56.0769 185.969 56.2722C188.929 56.4674 191.765 57.5358 194.118 59.3423C196.471 61.1489 198.236 63.6125 199.19 66.4219C200.144 69.2312 200.243 72.2602 199.476 75.1259C197.327 83.1498 188.914 86.3013 182.363 90.0831C178.916 92.0711 174.819 92.608 170.976 91.5757C167.132 90.5435 163.856 88.0267 161.868 84.5789C159.88 81.1311 159.343 77.0349 160.375 73.1912C161.408 69.3476 163.924 66.0715 167.372 64.0835H167.374ZM181.774 65.7054L171.661 71.5434C170.202 72.3991 169.14 73.7979 168.709 75.434C168.277 77.07 168.511 78.8104 169.359 80.2745C170.207 81.7387 171.6 82.8077 173.234 83.2478C174.867 83.6879 176.609 83.4633 178.078 82.6232L187.829 76.9942C188.006 76.868 188.192 76.7553 188.386 76.6572C189.795 75.7601 190.798 74.3475 191.179 72.7211C191.561 71.0948 191.291 69.3837 190.428 67.9536C189.564 66.5234 188.176 65.4876 186.559 65.0676C184.942 64.6475 183.225 64.8764 181.775 65.7054H181.774Z" fill="#022A32"/>
<path d="M30.8575 216.043C33.2442 216.043 35.1789 214.109 35.1789 211.722C35.1789 209.335 33.2442 207.401 30.8575 207.401C28.4709 207.401 26.5361 209.335 26.5361 211.722C26.5361 214.109 28.4709 216.043 30.8575 216.043Z" fill="#022A32"/>
<path d="M174.413 171.927C175.559 171.927 176.658 171.472 177.468 170.661C178.279 169.851 178.734 168.752 178.734 167.606C178.734 166.459 178.279 165.36 177.468 164.55C176.658 163.739 175.559 163.284 174.413 163.284H59.5953C58.4492 163.284 57.35 163.739 56.5396 164.55C55.7292 165.36 55.2739 166.459 55.2739 167.606C55.2739 168.752 55.7292 169.851 56.5396 170.661C57.35 171.472 58.4492 171.927 59.5953 171.927H174.413Z" fill="#022A32"/>
<path d="M174.413 38.1893C174.98 38.1893 175.542 38.0775 176.066 37.8603C176.591 37.6432 177.067 37.3248 177.468 36.9236C177.87 36.5223 178.188 36.0459 178.405 35.5216C178.622 34.9973 178.734 34.4354 178.734 33.8679C178.734 33.3004 178.622 32.7385 178.405 32.2142C178.188 31.6899 177.87 31.2135 177.468 30.8122C177.067 30.4109 176.591 30.0926 176.066 29.8754C175.542 29.6583 174.98 29.5465 174.413 29.5465H59.5953C59.0278 29.5465 58.4659 29.6583 57.9416 29.8754C57.4173 30.0926 56.9409 30.4109 56.5396 30.8122C56.1383 31.2135 55.82 31.6899 55.6029 32.2142C55.3857 32.7385 55.2739 33.3004 55.2739 33.8679C55.2739 34.4354 55.3857 34.9973 55.6029 35.5216C55.82 36.0459 56.1383 36.5223 56.5396 36.9236C56.9409 37.3248 57.4173 37.6432 57.9416 37.8603C58.4659 38.0775 59.0278 38.1893 59.5953 38.1893H174.413Z" fill="#022A32"/>
<path d="M111.94 0C110.793 0 109.694 0.455287 108.884 1.2657C108.073 2.07612 107.618 3.17529 107.618 4.32139C107.618 5.46749 108.073 6.56665 108.884 7.37707C109.694 8.18749 110.793 8.64277 111.94 8.64277H122.067C123.213 8.64277 124.312 8.18749 125.122 7.37707C125.933 6.56665 126.388 5.46749 126.388 4.32139C126.388 3.17529 125.933 2.07612 125.122 1.2657C124.312 0.455287 123.213 0 122.067 0H111.94Z" fill="#022A32"/>
<path d="M105.538 14.774C104.392 14.774 103.292 15.2293 102.482 16.0398C101.672 16.8502 101.216 17.9493 101.216 19.0954C101.216 20.2415 101.672 21.3407 102.482 22.1511C103.292 22.9615 104.392 23.4168 105.538 23.4168H128.468C129.615 23.4168 130.714 22.9615 131.524 22.1511C132.334 21.3407 132.79 20.2415 132.79 19.0954C132.79 17.9493 132.334 16.8502 131.524 16.0398C130.714 15.2293 129.615 14.774 128.468 14.774H105.538Z" fill="#022A32"/>
<path d="M105.538 193.957C104.392 193.957 103.292 194.412 102.482 195.223C101.672 196.033 101.216 197.132 101.216 198.278C101.216 199.424 101.672 200.523 102.482 201.334C103.292 202.144 104.392 202.6 105.538 202.6H128.468C129.615 202.6 130.714 202.144 131.524 201.334C132.334 200.523 132.79 199.424 132.79 198.278C132.79 197.132 132.334 196.033 131.524 195.223C130.714 194.412 129.615 193.957 128.468 193.957H105.538Z" fill="#022A32"/>
<path d="M105.538 178.62C104.97 178.62 104.408 178.732 103.884 178.949C103.36 179.167 102.883 179.485 102.482 179.886C102.081 180.287 101.762 180.764 101.545 181.288C101.328 181.812 101.216 182.374 101.216 182.942C101.216 183.509 101.328 184.071 101.545 184.596C101.762 185.12 102.081 185.596 102.482 185.998C102.883 186.399 103.36 186.717 103.884 186.934C104.408 187.151 104.97 187.263 105.538 187.263H128.468C129.615 187.263 130.714 186.808 131.524 185.998C132.334 185.187 132.79 184.088 132.79 182.942C132.79 181.796 132.334 180.697 131.524 179.886C130.714 179.076 129.615 178.62 128.468 178.62H105.538Z" fill="#022A32"/>
<path d="M71.73 76.7868C71.73 77.9329 72.1853 79.0321 72.9957 79.8425C73.8061 80.6529 74.9052 81.1082 76.0514 81.1082C77.1975 81.1082 78.2966 80.6529 79.107 79.8425C79.9174 79.0321 80.3727 77.9329 80.3727 76.7868V62.1246H95.0334C96.1795 62.1246 97.2786 61.6693 98.089 60.8589C98.8995 60.0485 99.3548 58.9493 99.3548 57.8032C99.3548 56.6571 98.8995 55.5579 98.089 54.7475C97.2786 53.9371 96.1795 53.4818 95.0334 53.4818H76.0514C75.4839 53.4818 74.9219 53.5935 74.3976 53.8107C73.8733 54.0279 73.3969 54.3462 72.9956 54.7475C72.5944 55.1487 72.276 55.6251 72.0589 56.1494C71.8417 56.6738 71.73 57.2357 71.73 57.8032V76.7868Z" fill="#022A32"/>
<path d="M139.764 76.7868C139.764 77.9329 140.219 79.0321 141.029 79.8425C141.84 80.6529 142.939 81.1082 144.085 81.1082C145.231 81.1082 146.33 80.6529 147.141 79.8425C147.951 79.0321 148.407 77.9329 148.407 76.7868V57.8032C148.407 57.2357 148.295 56.6738 148.078 56.1494C147.86 55.6251 147.542 55.1487 147.141 54.7475C146.74 54.3462 146.263 54.0279 145.739 53.8107C145.215 53.5935 144.653 53.4818 144.085 53.4818H125.103C123.957 53.4818 122.858 53.9371 122.047 54.7475C121.237 55.5579 120.782 56.6571 120.782 57.8032C120.782 58.9493 121.237 60.0485 122.047 60.8589C122.858 61.6693 123.957 62.1246 125.103 62.1246H139.764V76.7868Z" fill="#022A32"/>
<path d="M80.3727 95.7752C80.3727 95.2078 80.261 94.6458 80.0438 94.1215C79.8266 93.5972 79.5083 93.1208 79.107 92.7196C78.7058 92.3183 78.2294 92 77.7051 91.7828C77.1808 91.5656 76.6188 91.4539 76.0514 91.4539C75.4839 91.4539 74.9219 91.5656 74.3976 91.7828C73.8733 92 73.397 92.3183 72.9957 92.7196C72.5944 93.1208 72.2761 93.5972 72.0589 94.1215C71.8417 94.6458 71.73 95.2078 71.73 95.7752V114.757C71.73 115.325 71.8417 115.887 72.0589 116.411C72.276 116.935 72.5944 117.412 72.9956 117.813C73.3969 118.214 73.8733 118.533 74.3976 118.75C74.9219 118.967 75.4839 119.079 76.0514 119.079H95.0334C96.1795 119.079 97.2786 118.623 98.089 117.813C98.8995 117.003 99.3548 115.903 99.3548 114.757C99.3548 113.611 98.8995 112.512 98.089 111.702C97.2786 110.891 96.1795 110.436 95.0334 110.436H80.3727V95.7752Z" fill="#022A32"/>
<path d="M148.407 95.7752C148.407 94.6291 147.951 93.53 147.141 92.7196C146.33 91.9092 145.231 91.4539 144.085 91.4539C142.939 91.4539 141.84 91.9092 141.029 92.7196C140.219 93.53 139.764 94.6291 139.764 95.7752V110.436H125.103C123.957 110.436 122.858 110.891 122.047 111.702C121.237 112.512 120.782 113.611 120.782 114.757C120.782 115.903 121.237 117.003 122.047 117.813C122.858 118.623 123.957 119.079 125.103 119.079H144.085C144.653 119.079 145.215 118.967 145.739 118.75C146.263 118.533 146.74 118.214 147.141 117.813C147.542 117.412 147.86 116.935 148.078 116.411C148.295 115.887 148.407 115.325 148.407 114.757V95.7752Z" fill="#022A32"/>
<path d="M88.7579 81.9604C87.6118 81.9604 86.5127 82.4157 85.7022 83.2261C84.8918 84.0366 84.4365 85.1357 84.4365 86.2818C84.4365 87.4279 84.8918 88.5271 85.7022 89.3375C86.5127 90.1479 87.6118 90.6032 88.7579 90.6032H131.375C132.522 90.6032 133.621 90.1479 134.431 89.3375C135.242 88.5271 135.697 87.4279 135.697 86.2818C135.697 85.1357 135.242 84.0366 134.431 83.2261C133.621 82.4157 132.522 81.9604 131.375 81.9604H88.7579Z" fill="#DB5656"/>
<path d="M82.7399 134.174C82.7399 133.027 82.2846 131.928 81.4742 131.118C80.6638 130.307 79.5646 129.852 78.4185 129.852C77.2724 129.852 76.1733 130.307 75.3629 131.118C74.5524 131.928 74.0972 133.027 74.0972 134.174V150.63C74.0972 151.776 74.5524 152.875 75.3629 153.685C76.1733 154.496 77.2724 154.951 78.4185 154.951C79.5646 154.951 80.6638 154.496 81.4742 153.685C82.2846 152.875 82.7399 151.776 82.7399 150.63V134.174Z" fill="#DB5656"/>
<path d="M97.0861 134.174C97.0861 133.606 96.9744 133.044 96.7572 132.52C96.54 131.996 96.2217 131.519 95.8204 131.118C95.4192 130.717 94.9428 130.398 94.4185 130.181C93.8942 129.964 93.3322 129.852 92.7648 129.852C92.1973 129.852 91.6353 129.964 91.111 130.181C90.5867 130.398 90.1104 130.717 89.7091 131.118C89.3078 131.519 88.9895 131.996 88.7723 132.52C88.5551 133.044 88.4434 133.606 88.4434 134.174V150.63C88.4434 151.776 88.8987 152.875 89.7091 153.685C90.5195 154.496 91.6186 154.951 92.7648 154.951C93.9109 154.951 95.01 154.496 95.8204 153.685C96.6308 152.875 97.0861 151.776 97.0861 150.63V134.174Z" fill="#DB5656"/>
<path d="M111.432 134.174C111.432 133.606 111.321 133.044 111.103 132.52C110.886 131.996 110.568 131.519 110.167 131.118C109.765 130.717 109.289 130.398 108.765 130.181C108.24 129.964 107.678 129.852 107.111 129.852C106.543 129.852 105.982 129.964 105.457 130.181C104.933 130.398 104.457 130.717 104.055 131.118C103.654 131.519 103.336 131.996 103.118 132.52C102.901 133.044 102.79 133.606 102.79 134.174V150.63C102.79 151.776 103.245 152.875 104.055 153.685C104.866 154.496 105.965 154.951 107.111 154.951C108.257 154.951 109.356 154.496 110.167 153.685C110.977 152.875 111.432 151.776 111.432 150.63V134.174Z" fill="#DB5656"/>
<path d="M125.779 134.174C125.779 133.606 125.667 133.044 125.45 132.52C125.232 131.996 124.914 131.519 124.513 131.118C124.112 130.717 123.635 130.398 123.111 130.181C122.587 129.964 122.025 129.852 121.457 129.852C120.89 129.852 120.328 129.964 119.803 130.181C119.279 130.398 118.803 130.717 118.401 131.118C118 131.519 117.682 131.996 117.465 132.52C117.248 133.044 117.136 133.606 117.136 134.174V150.63C117.136 151.776 117.591 152.875 118.401 153.685C119.212 154.496 120.311 154.951 121.457 154.951C122.603 154.951 123.702 154.496 124.513 153.685C125.323 152.875 125.779 151.776 125.779 150.63V134.174Z" fill="#DB5656"/>
<path d="M140.125 134.174C140.125 133.606 140.013 133.044 139.796 132.52C139.579 131.996 139.261 131.519 138.859 131.118C138.458 130.717 137.982 130.398 137.458 130.181C136.933 129.964 136.371 129.852 135.804 129.852C135.236 129.852 134.674 129.964 134.15 130.181C133.626 130.398 133.149 130.717 132.748 131.118C132.347 131.519 132.029 131.996 131.811 132.52C131.594 133.044 131.482 133.606 131.482 134.174V150.63C131.482 151.776 131.938 152.875 132.748 153.685C133.559 154.496 134.658 154.951 135.804 154.951C136.95 154.951 138.049 154.496 138.859 153.685C139.67 152.875 140.125 151.776 140.125 150.63V134.174Z" fill="#DB5656"/>
</svg>
